<svg xmlns="http://www.w3.org/2000/svg" xmlns:xlink="http://www.w3.org/1999/xlink"><symbol id="arrow-left"><path d="M24.75 10.5a1.5 1.5 0 0 1 0 3v-3ZM1.19 13.06a1.5 1.5 0 0 1 0-2.12l9.545-9.547a1.5 1.5 0 1 1 2.122 2.122L4.37 12l8.486 8.485a1.5 1.5 0 1 1-2.122 2.122L1.19 13.06Zm23.56.44H2.25v-3h22.5v3Z" fill="#21201F"/></symbol><symbol id="arrow-right"><path d="M2.25 10.5a1.5 1.5 0 0 0 0 3v-3Zm23.56 2.56a1.5 1.5 0 0 0 0-2.12l-9.545-9.547a1.5 1.5 0 1 0-2.122 2.122L22.63 12l-8.486 8.485a1.5 1.5 0 1 0 2.122 2.122l9.546-9.546Zm-23.56.44h22.5v-3H2.25v3Z" fill="#21201F"/></symbol><symbol id="mobile-header-logo"><path d="M88.742 0h12.424a11.182 11.182 0 0 1 11.185 11.182v9.637A11.18 11.18 0 0 1 101.166 32H88.87a11.187 11.187 0 0 1-10.334-6.902 11.178 11.178 0 0 1-.851-4.279v-9.637C77.685 5.005 82.563 0 88.742 0Z" fill="#21201F"/><path d="M91.782 18.093v-.544H88.51v-2.417h6.38v2.875c0 4.527-2.163 7.156-6.252 7.156-4.217 0-6.666-3.322-6.666-9.18 0-5.71 2.672-9.208 7.576-9.208 1.852 0 3.45.491 4.324 1.13v2.488a8.033 8.033 0 0 0-4.174-1.204c-3.216 0-4.58 2.184-4.58 6.795 0 4.472 1.13 6.76 3.578 6.76 2.34.012 3.086-1.798 3.086-4.651ZM108.119 18.433c0 4.345-2.343 6.74-5.711 6.74-3.37 0-5.712-2.395-5.712-6.707 0-4.346 2.343-6.741 5.712-6.741 3.368 0 5.711 2.385 5.711 6.708Zm-3.163 0c0-2.982-.852-4.29-2.545-4.29-1.692 0-2.546 1.308-2.546 4.322 0 2.982.852 4.292 2.546 4.292s2.545-1.32 2.545-4.324Z" fill="#fff"/><path d="M8.775 9.458H7.376c-2.541 0-3.88 1.288-3.88 3.193 0 2.163.926 3.164 2.833 4.452l1.566 1.055-4.526 6.76H0l4.058-6.048C1.715 17.198.404 15.58.404 12.823c0-3.45 2.394-5.783 6.94-5.783h4.524v17.88H8.764V9.458h.01Zm15.889 2.523V24.92h-3.057v-5.4h-4.09v5.4h-3.056V11.98h3.056v5.122h4.09V11.98h3.057ZM38.475 27.87h-2.832v-2.96h-6.87v2.96h-2.832v-5.373h.958c1.076-2.162 1.29-6.25 1.29-9.413v-1.107h8.922v10.52h1.364v5.373Zm-4.42-13.471h-3.237v.383c0 2.236-.233 5.76-1.086 7.72h4.323V14.4Zm11.288 10.766c-3.907 0-6.123-2.184-6.123-6.688 0-3.908 1.779-6.76 5.507-6.76 3.056 0 5.036 1.702 5.036 6.197v1.618h-7.38c.128 2.162.98 3.216 3.217 3.216 1.49 0 3.087-.564 4.035-1.213v2.501c-.894.618-2.332 1.128-4.292 1.128Zm-2.96-7.892h4.27v-.254c0-1.618-.466-2.874-1.981-2.874-1.458-.013-2.203 1.073-2.288 3.128Zm12.502 1.29v6.357h-3.067V11.98h3.067v5.964l4.33-5.964h3.088l-4.323 5.964 4.908 6.964h-3.477l-4.526-6.347Zm7.827-.107c0-3.94 2.034-6.74 5.945-6.74 1.515 0 2.652.255 3.29.616v2.6c-.617-.384-1.778-.8-2.96-.8-2.003 0-3.11 1.438-3.11 4.25 0 2.672.906 4.375 3.089 4.375 1.288 0 2.215-.33 2.982-.873v2.492c-.746.544-1.749.799-3.164.799-4.091-.01-6.073-2.395-6.073-6.719h.001Z" fill="#21201F"/></symbol></svg>