<svg width="113" height="32" viewBox="0 0 113 32" fill="none" xmlns="http://www.w3.org/2000/svg">
<path d="M88.7419 0H101.166C104.132 0.000309087 106.977 1.1785 109.075 3.27545C111.172 5.3724 112.351 8.21638 112.351 11.1819V20.8194C112.351 22.2877 112.062 23.7417 111.5 25.0983C110.938 26.4549 110.114 27.6875 109.075 28.7258C108.036 29.764 106.803 30.5875 105.446 31.1494C104.089 31.7112 102.635 32.0003 101.166 32.0001H88.8701C87.4013 32.0003 85.9468 31.7112 84.5897 31.1494C83.2326 30.5875 81.9995 29.764 80.9608 28.7258C79.9221 27.6875 79.0982 26.4549 78.536 25.0983C77.9739 23.7417 77.6846 22.2877 77.6846 20.8194V11.1819C77.6846 5.00523 82.5632 0 88.7419 0Z" fill="#21201F"/>
<path d="M91.7816 18.0925V17.5493H88.5097V15.1318H94.8892V18.0074C94.8892 22.5336 92.727 25.1632 88.6379 25.1632C84.4207 25.1632 81.9717 21.8412 81.9717 15.9839C81.9717 10.2723 84.6445 6.77539 89.5483 6.77539C91.4005 6.77539 92.9986 7.26612 93.8716 7.90489V10.3935C92.6172 9.61641 91.1731 9.19981 89.6975 9.18942C86.4815 9.18942 85.1177 11.3726 85.1177 15.9839C85.1177 20.4564 86.2472 22.7446 88.6962 22.7446C91.0356 22.7562 91.7816 20.946 91.7816 18.0925Z" fill="white"/>
<path d="M108.119 18.4329C108.119 22.7784 105.776 25.1737 102.408 25.1737C99.0389 25.1737 96.696 22.7784 96.696 18.4655C96.696 14.12 99.0389 11.7247 102.408 11.7247C105.776 11.7247 108.119 14.1096 108.119 18.4329ZM104.956 18.4329C104.956 15.4512 104.104 14.1422 102.411 14.1422C100.719 14.1422 99.8653 15.4512 99.8653 18.4655C99.8653 21.4472 100.717 22.7574 102.411 22.7574C104.105 22.7574 104.956 21.4367 104.956 18.4329Z" fill="white"/>
<path d="M8.77488 9.45756H7.37612C4.83504 9.45756 3.4969 10.7456 3.4969 12.6514C3.4969 14.8136 4.42241 15.8149 6.32939 17.1029L7.89483 18.1578L3.36868 24.9185H0L4.05757 18.87C1.71465 17.1985 0.404475 15.5806 0.404475 12.8227C0.404475 9.37247 2.79752 7.04004 7.34349 7.04004H11.8685V24.9197H8.76439V9.45756H8.77488ZM24.6636 11.9812V24.9197H21.6073V19.5205H17.5171V24.9197H14.4608V11.9812H17.5171V17.1029H21.6073V11.9812H24.6636ZM38.4752 27.8699H35.6427V24.9092H28.7736V27.8699H25.9412V22.4975H26.8993C27.9752 20.3352 28.1885 16.2462 28.1885 13.0838V11.9765H37.1114V22.4975H38.4752V27.8699ZM34.0551 14.3987H30.8182V14.7822C30.8182 17.0179 30.585 20.5427 29.7318 22.5022H34.0551V14.3987ZM45.3431 25.1645C41.4359 25.1645 39.22 22.9812 39.22 18.4772C39.22 14.5689 40.9988 11.7166 44.7265 11.7166C47.7828 11.7166 49.7632 13.4195 49.7632 17.9142V19.5321H42.3836C42.5106 21.6944 43.3627 22.7481 45.5996 22.7481C47.0904 22.7481 48.6873 22.1839 49.635 21.5347V24.0361C48.7409 24.6539 47.3025 25.1645 45.3431 25.1645ZM42.3836 17.2731H46.6533V17.019C46.6533 15.4011 46.187 14.1446 44.6717 14.1446C43.2135 14.1317 42.4687 15.2181 42.3836 17.2731ZM54.885 18.5623V24.9197H51.8182V11.9812H54.885V17.9445L59.2141 11.9812H62.3031L57.9797 17.9445L62.8882 24.9092H59.4111L54.885 18.5623ZM62.7122 18.4562C62.7122 14.5152 64.7462 11.7154 68.6569 11.7154C70.1723 11.7154 71.3087 11.9707 71.9475 12.332V14.9314C71.3297 14.5479 70.1688 14.1317 68.9868 14.1317C66.9843 14.1317 65.8769 15.5701 65.8769 18.3816C65.8769 21.0544 66.7826 22.7574 68.9658 22.7574C70.2538 22.7574 71.1805 22.4276 71.9475 21.8844V24.3765C71.2015 24.9197 70.1991 25.1749 68.784 25.1749C64.6926 25.1645 62.711 22.7796 62.711 18.4562H62.7122Z" fill="#21201F"/>
</svg>
